#!OML:ASF E:\inclinewalkrobotboard\Project 1\Capture day 1\Session 1\subject1.ASF
:FULLY-SPECIFIED
:DEGREES
252
root 8.44231 22.3119 10.2459 -163.076 6.1337 179.846
lowerback 5.10763 2.82631 -10.2529
upperback 3.63955 3.73192 -2.02008
thorax 0.45662 1.87236 3.44085
lowerneck -4.84813 -0.559882 -3.99754
upperneck 16.7058 -2.24962 6.6747
head 5.9421 -1.17557 2.5987
rclavicle 2.3059e-014 -3.02153e-014
rhumerus -25.6884 -16.7681 -82.6192
rradius 26.4209
rwrist 12.3919
rhand -14.8521 -35.8181
rfingers 7.12502
rthumb 11.3074 -65.4933
lclavicle 2.3059e-014 -3.02153e-014
lhumerus -24.3528 2.93808 79.1969
lradius 23.7307
lwrist -23.4805
lhand -27.2074 -18.4161
lfingers 7.12502
lthumb -0.620416 11.5627
rfemur -12.2897 2.5977 20.7218
rtibia 41.01
rfoot 15.9296 -7.36374
rtoes -18.1919
lfemur -52.5759 -2.69462 -19.4968
ltibia 43.6118
lfoot -26.7791 3.7148
ltoes -61.8922
253
root 8.41276 22.4282 10.0341 -163.202 5.9014 179.645
lowerback 5.25213 2.63275 -10.4892
upperback 3.72849 3.46034 -1.90919
thorax 0.489712 1.73107 3.69947
lowerneck -4.65962 -0.497802 -4.00585
upperneck 16.3307 -2.10313 6.57925
head 5.78305 -1.10808 2.57804
rclavicle 8.74653e-015 -8.66701e-014
rhumerus -27.665 -18.6064 -80.6668
rradius 25.2159
rwrist 14.2482
rhand -14.1345 -36.3413
rfingers 7.12502
rthumb 11.9994 -65.9774
lclavicle 8.74653e-015 -8.66701e-014
lhumerus -23.481 0.849631 80.3073
lradius 25.7213
lwrist -21.6927
lhand -27.4333 -18.4041
lfingers 7.12502
lthumb -0.838611 11.574
rfemur -15.467 2.513 20.5739
rtibia 46.0959
rfoot 13.2705 -8.26402
rtoes -19.6526
lfemur -50.6294 -3.57739 -19.7794
ltibia 42.1146
lfoot -27.1664 4.01133
ltoes -62.0219
254
root 8.38585 22.5332 9.8306 -163.519 5.7267 179.247
lowerback 5.48264 2.43431 -10.9142
upperback 3.89379 3.18208 -1.81656
thorax 0.555137 1.58464 4.04269
lowerneck -4.55314 -0.366296 -4.18025
upperneck 15.985 -1.87301 6.6595
head 5.64525 -0.996136 2.64599
rclavicle 1.66979e-014 -8.74653e-015
rhumerus -29.6778 -20.7702 -78.4872
rradius 24.1386
rwrist 16.2492
rhand -13.126 -37.1788
rfingers 7.12502
rthumb 12.9717 -66.7556
lclavicle 1.66979e-014 -8.74653e-015
lhumerus -22.5405 -1.26707 81.284
lradius 27.6514
lwrist -19.6248
lhand -27.5298 -18.546
lfingers 7.12502
lthumb -0.931778 11.4317
rfemur -18.6727 2.48672 20.1903
rtibia 51.0522
rfoot 8.93103 -8.24935
rtoes -25.0924
lfemur -48.5499 -4.49232 -20.2958
ltibia 40.6464
lfoot -27.6137 3.97908
ltoes -61.6826
255
root 8.36 22.6268 9.63115 -163.888 5.60841 178.748
lowerback 5.69 2.1975 -11.426
upperback 4.0689 2.85325 -1.71007
thorax 0.65487 1.40891 4.45448
lowerneck -4.9225 -0.2181 -4.54342
upperneck 16.2251 -1.65751 6.80318
head 5.77387 -0.895981 2.76785
rclavicle 6.75868e-015 5.80451e-014
rhumerus -31.6592 -23.3184 -75.9854
rradius 22.9074
rwrist 18.5502
rhand -12.658 -37.7231
rfingers 7.12502
rthumb 13.4228 -67.2706
lclavicle 6.75868e-015 5.80451e-014
lhumerus -21.5276 -2.78649 82.1103
lradius 29.3193
lwrist -18.0615
lhand -27.9387 -18.973
lfingers 7.12502
lthumb -1.3267 11.0026
rfemur -21.9054 2.5416 19.6258
rtibia 55.4158
rfoot 4.94791 -7.75105
rtoes -29.0222
lfemur -46.4975 -5.36212 -20.9556
ltibia 39.273
lfoot -28.081 3.76377
ltoes -61.0547
256
root 8.33097 22.7139 9.43843 -164.257 5.5416 178.315
lowerback 5.96607 2.3034 -11.5741
upperback 4.00543 2.95727 -1.86871
thorax 0.421867 1.48041 4.34931
lowerneck -4.67661 -0.381448 -3.82932
upperneck 16.5346 -2.00158 6.56079
head 5.84235 -1.05927 2.54948
rclavicle 6.0033e-014 3.10104e-014
rhumerus -34.7902 -27.0163 -72.831
rradius 21.8999
rwrist 20.8232
rhand -12.8409 -37.7944
rfingers 7.12502
rthumb 13.2465 -67.3535
lclavicle 6.0033e-014 3.10104e-014
lhumerus -20.7813 -5.15764 82.7526
lradius 30.9129
lwrist -16.9568
lhand -28.1798 -19.1211
lfingers 7.12502
lthumb -1.55961 10.853
rfemur -25.1959 2.73186 19.0676
rtibia 59.1197
rfoot 2.14059 -7.72052
rtoes -30.9425
lfemur -44.464 -6.02363 -21.6327
ltibia 37.837
lfoot -28.3205 3.82162
ltoes -60.8413
257
root 8.30153 22.8017 9.25053 -164.706 5.44284 177.926
lowerback 6.331 1.94145 -11.9425
upperback 4.10425 2.41924 -1.62749
thorax 0.391947 1.20419 4.83401
lowerneck -4.99962 -0.0857091 -4.16329
upperneck 16.9827 -1.54493 6.27555
head 6.01347 -0.87717 2.54732
rclavicle 3.57812e-015 -7.95139e-016
rhumerus -36.9591 -29.1249 -69.758
rradius 20.6926
rwrist 23.0792
rhand -13.3278 -37.491
rfingers 7.12502
rthumb 12.7772 -67.08
lclavicle 3.57812e-015 -7.95139e-016
lhumerus -20.1312 -5.24175 83.2912
lradius 32.615
lwrist -16.4175
lhand -28.0645 -19.3176
lfingers 7.12502
lthumb -1.44816 10.6572
rfemur -28.4116 2.98601 18.5438
rtibia 62.2141
rfoot -1.01388 -7.80803
rtoes -33.1566
lfemur -42.3102 -6.51166 -22.3428
ltibia 36.3148
lfoot -28.4414 3.98472
ltoes -60.9876
258
root 8.27436 22.8877 9.06523 -165.103 5.30536 177.689
lowerback 6.60686 1.6157 -12.0418
upperback 4.22069 1.95687 -1.43442
thorax 0.434179 0.965855 5.12056
lowerneck -5.42486 -0.855527 -4.2892
upperneck 17.5111 -0.837419 5.94706
head 6.23027 0.0825999 2.58662
rclavicle 7.95139e-016 -3.33958e-014
rhumerus -39.3396 -31.4433 -66.4609
rradius 19.607
rwrist 25.3846
rhand -13.6732 -37.4987
rfingers 7.12502
rthumb 12.4442 -67.1082
lclavicle 7.95139e-016 -3.33958e-014
lhumerus -19.2758 -5.38874 83.6689
lradius 34.2163
lwrist -16.2081
lhand -27.8517 -19.4677
lfingers 7.12502
lthumb -1.24265 10.5085
rfemur -31.6868 3.21782 18.1892
rtibia 64.7819
rfoot -4.03841 -7.9019
rtoes -33.8342
lfemur -40.2589 -6.87137 -22.8921
ltibia 34.899
lfoot -28.6568 4.01527
ltoes -61.0926
259
root 8.24736 22.9676 8.88223 -165.431 5.14501 177.531
lowerback 6.84275 0.33919 -12.5429
upperback 4.92319 0.28548 -0.51272
thorax 1.36054 0.0371867 6.49148
lowerneck -8.84668 0.170192 -7.10827
upperneck 18.8034 0.92707 6.25915
head 7.13654 0.764168 3.3444
rclavicle 3.77691e-014 6.99722e-014
rhumerus -38.1943 -32.01 -64.1879
rradius 17.756
rwrist 28.521
rhand -13.7155 -38.0969
rfingers 7.12502
rthumb 12.4034 -67.7089
lclavicle 3.77691e-014 6.99722e-014
lhumerus -17.4588 -1.21533 84.1526
lradius 35.4419
lwrist -17.0664
lhand -27.9322 -19.6887
lfingers 7.12502
lthumb -1.32046 10.2869
rfemur -34.983 3.36413 17.8969
rtibia 66.758
rfoot -7.13705 -8.22766
rtoes -33.6145
lfemur -38.3145 -7.13447 -23.3681
ltibia 33.517
lfoot -28.8369 4.04309
ltoes -61.1946
260
root 8.22161 23.042 8.70266 -165.763 4.91103 177.327
lowerback 6.84691 1.35392 -11.7596
upperback 4.24893 1.59722 -1.41902
thorax 0.396364 0.794837 5.0014
lowerneck -5.2141 -0.817225 -3.60429
upperneck 17.7612 -0.821243 5.90601
head 6.26886 0.150379 2.46429
rclavicle -2.78299e-015 5.80451e-014
rhumerus -46.4471 -37.6139 -57.7849
rradius 17.7135
rwrist 30.9752
rhand -13.4885 -38.5573
rfingers 7.12502
rthumb 12.6223 -68.1559
lclavicle -2.78299e-015 5.80451e-014
lhumerus -17.6698 -6.85528 84.2579
lradius 36.6468
lwrist -16.4513
lhand -27.7308 -19.5486
lfingers 7.12502
lthumb -1.1259 10.4282
rfemur -38.1555 3.38357 17.5348
rtibia 68.0147
rfoot -9.98771 -8.90132
rtoes -33.0349
lfemur -36.3688 -7.44301 -23.8916
ltibia 32.0836
lfoot -28.9072 4.37419
ltoes -61.5768
